<?xml version="1.0" encoding="UTF-8"?>
<!DOCTYPE svg PUBLIC "-//W3C//DTD SVG 1.1//EN" "http://www.w3.org/Graphics/SVG/1.1/DTD/svg11.dtd">
<svg xmlns="http://www.w3.org/2000/svg" version="1.1" width="2000px" height="1500px" style="shape-rendering:geometricPrecision; text-rendering:geometricPrecision; image-rendering:optimizeQuality; fill-rule:evenodd; clip-rule:evenodd" xmlns:xlink="http://www.w3.org/1999/xlink">
<g><path style="opacity:1" fill="#111111" d="M -0.5,-0.5 C 666.167,-0.5 1332.83,-0.5 1999.5,-0.5C 1999.5,499.5 1999.5,999.5 1999.5,1499.5C 1332.83,1499.5 666.167,1499.5 -0.5,1499.5C -0.5,999.5 -0.5,499.5 -0.5,-0.5 Z"/></g>
<g><path style="opacity:1" fill="#fbfbfb" d="M 1154.5,281.5 C 1303.56,276.542 1428.72,328.209 1530,436.5C 1626.78,548.559 1664.45,678.225 1643,825.5C 1619.98,952.458 1556.81,1053.96 1453.5,1130C 1331.61,1213.1 1198.94,1236.43 1055.5,1200C 971.566,1175.89 899.9,1132.23 840.5,1069C 851.167,1068.33 861.833,1068.33 872.5,1069C 984.994,1172.71 1116.99,1211.37 1268.5,1185C 1396.33,1157.23 1494.5,1088.06 1563,977.5C 1627.65,864.361 1642.31,745.028 1607,619.5C 1565.91,494.087 1486.08,402.587 1367.5,345C 1261.89,298.748 1153.89,292.415 1043.5,326C 978.69,347.882 921.69,382.215 872.5,429C 861.833,429.667 851.167,429.667 840.5,429C 903.859,361.964 980.526,316.964 1070.5,294C 1098.28,287.342 1126.28,283.175 1154.5,281.5 Z"/></g>
<g><path style="opacity:1" fill="#fefefe" d="M 802.5,974.5 C 801.957,974.56 801.624,974.893 801.5,975.5C 914.833,976.833 1028.17,976.833 1141.5,975.5C 1141.38,974.893 1141.04,974.56 1140.5,974.5C 1076.13,813.221 1011.46,652.054 946.5,491C 979.405,490.171 1012.24,490.338 1045,491.5C 1097.67,619.5 1150.33,747.5 1203,875.5C 1256.52,747.447 1309.35,619.114 1361.5,490.5C 1394.17,490.167 1426.84,490.5 1459.5,491.5C 1394.54,652.408 1329.88,813.408 1265.5,974.5C 1264.96,974.56 1264.62,974.893 1264.5,975.5C 1330.16,976.5 1395.83,976.833 1461.5,976.5C 1461.5,986.833 1461.5,997.167 1461.5,1007.5C 1153.5,1007.5 845.5,1007.5 537.5,1007.5C 537.5,997.167 537.5,986.833 537.5,976.5C 564.502,976.667 591.502,976.5 618.5,976C 617.956,975.283 617.289,974.783 616.5,974.5C 594.853,964.686 576.187,950.853 560.5,933C 576.098,910.399 592.098,888.065 608.5,866C 609.167,865.333 609.833,865.333 610.5,866C 628.125,882.818 648.125,896.152 670.5,906C 703.098,918.149 733.431,914.149 761.5,894C 779.829,876.546 789.162,855.046 789.5,829.5C 790.499,742.668 790.833,655.668 790.5,568.5C 735.5,568.5 680.5,568.5 625.5,568.5C 625.5,542.5 625.5,516.5 625.5,490.5C 709.5,490.5 793.5,490.5 877.5,490.5C 877.667,604.167 877.5,717.834 877,831.5C 875.811,865.593 867.145,897.593 851,927.5C 838.575,947.093 822.408,962.759 802.5,974.5 Z"/></g>
<g><path style="opacity:1" fill="#a0a0a0" d="M 625.5,568.5 C 680.5,568.5 735.5,568.5 790.5,568.5C 790.833,655.668 790.499,742.668 789.5,829.5C 789.5,742.833 789.5,656.167 789.5,569.5C 734.664,569.832 679.997,569.499 625.5,568.5 Z"/></g>
<g><path style="opacity:1" fill="#c5c5c5" d="M 616.5,974.5 C 617.289,974.783 617.956,975.283 618.5,976C 591.502,976.5 564.502,976.667 537.5,976.5C 537.5,986.833 537.5,997.167 537.5,1007.5C 536.506,997.013 536.172,986.346 536.5,975.5C 563.339,975.831 590.005,975.498 616.5,974.5 Z"/></g>
<g><path style="opacity:1" fill="#cecece" d="M 802.5,974.5 C 915.167,975.833 1027.83,975.833 1140.5,974.5C 1141.04,974.56 1141.38,974.893 1141.5,975.5C 1028.17,976.833 914.833,976.833 801.5,975.5C 801.624,974.893 801.957,974.56 802.5,974.5 Z"/></g>
<g><path style="opacity:1" fill="#c9c9c9" d="M 1265.5,974.5 C 1331,975.499 1396.66,975.832 1462.5,975.5C 1462.83,986.346 1462.49,997.013 1461.5,1007.5C 1461.5,997.167 1461.5,986.833 1461.5,976.5C 1395.83,976.833 1330.16,976.5 1264.5,975.5C 1264.62,974.893 1264.96,974.56 1265.5,974.5 Z"/></g>
</svg>
