<?xml version="1.0" encoding="utf-8"?>
<!-- Generator: Adobe Illustrator 14.0.0, SVG Export Plug-In . SVG Version: 6.00 Build 43363)  -->
<!DOCTYPE svg PUBLIC "-//W3C//DTD SVG 1.1//EN" "http://www.w3.org/Graphics/SVG/1.1/DTD/svg11.dtd">
<svg version="1.1" id="Layer_1" xmlns="http://www.w3.org/2000/svg" xmlns:xlink="http://www.w3.org/1999/xlink" x="0px" y="0px"
	 width="500px" height="500px" viewBox="0 0 500 500" enable-background="new 0 0 500 500" xml:space="preserve">
<g>
	<path fill="#002F65" d="M80.967,369.603c-1.261-6.283-2.838-12.461-6.368-16.385c3-2.09,4.967-5.56,4.967-9.49
		c0-4.872-3.017-9.034-7.28-10.738V199.207c0-3.61-1.921-6.536-4.287-6.536c-2.368,0-4.287,2.926-4.287,6.536v133.782
		c-4.264,1.705-7.281,5.867-7.281,10.739c0,3.903,1.941,7.35,4.906,9.444c-8.068,8.757-6.271,27.463-12.071,38.482
		c8.717,6.295,28.725,6.31,37.467,0C83.426,386.03,82.517,377.329,80.967,369.603z"/>
	<path fill="#002F65" d="M462.559,207.485l-0.07-0.071l-113.281-86.458c-1.422-1.385-3.295-2.146-5.285-2.146
		c-2.025,0-3.93,0.788-5.363,2.22c-2.953,2.955-2.953,7.765,0.051,10.771l19.305,17.598c1.627,1.483,4.965,4.295,9.193,7.855
		c16.68,14.045,55.74,46.938,55.74,55.591c0,8.656-39.066,41.553-55.748,55.6c-4.225,3.557-7.561,6.365-9.186,7.848l-10.623,9.687
		c-13.619-7.439-47.965-23.11-95.896-23.114c-50.12,0.004-85.386,17.139-97.625,24.078l-11.683-10.65
		c-1.626-1.482-4.961-4.291-9.185-7.848c-16.682-14.047-55.748-46.943-55.748-55.6c0-8.653,39.061-41.545,55.74-55.591
		c4.228-3.56,7.566-6.372,9.193-7.855l19.355-17.646c1.432-1.433,2.221-3.337,2.221-5.362c0-2.025-0.789-3.93-2.221-5.361
		c-1.433-1.431-3.336-2.219-5.362-2.219c-1.99,0-3.863,0.761-5.286,2.146L37.592,207.354l-0.151,0.132
		c-1.432,1.433-2.22,3.337-2.22,5.36c0,2.025,0.789,3.931,2.221,5.362l0.071,0.071l109.372,83.475l-4.896,48.35
		c-0.044,0.439-0.066,0.877-0.066,1.311c0.007,6.645,5.1,12.008,11.335,12.014c0.524,0.002,1.059-0.037,1.594-0.115
		c15.12-2.232,46.174-5.57,96.542-5.57c50.369,0,81.424,3.338,96.545,5.57c0.535,0.078,1.068,0.115,1.594,0.115
		c6.232-0.006,11.328-5.369,11.336-12.014c0-0.432-0.023-0.869-0.066-1.311l-5.096-50.326l106.701-81.438l0.15-0.132
		c1.432-1.432,2.221-3.337,2.221-5.362C464.779,210.822,463.99,208.918,462.559,207.485z M350.762,354.854
		c-1.141,1.203-2.691,1.936-4.4,1.936c-0.291,0-0.588-0.02-0.893-0.064c-14.867-2.191-45.137-5.436-94.074-5.436
		c-48.933,0-79.206,3.244-94.075,5.436c-0.303,0.045-0.598,0.064-0.89,0.064c-1.71,0-3.258-0.732-4.399-1.936
		c-1.137-1.207-1.836-2.846-1.838-4.676l0.038-0.729l5.249-51.865c0.224-2.186,1.441-4.094,3.282-5.148
		c10.998-6.299,44.628-22.936,92.633-22.932c48.006-0.004,81.639,16.633,92.637,22.932c1.838,1.055,3.057,2.963,3.277,5.148
		l5.254,51.861l0.035,0.732C352.598,352.008,351.898,353.646,350.762,354.854z"/>
	<g>
		<path fill="#002F65" d="M215.114,315.162c-2.864-2.121-6.947-3.875-12.249-5.264c-4.217-1.238-7.021-2.4-8.408-3.484
			c-1.389-1.086-2.082-2.74-2.082-4.963c0-1.867,0.554-3.293,1.666-4.279c1.109-0.982,3.089-1.477,5.944-1.477
			c4.293,0,9.356,1.312,15.188,3.939c1.54-1.666,2.31-3.547,2.31-5.643c0-2.197-1.055-3.674-3.162-4.43
			c-2.109-0.758-6.408-1.139-12.896-1.139c-6.312,0-11.265,1.414-14.865,4.242c-3.596,2.83-5.397,6.779-5.397,11.854
			c0,3.711,1.093,6.754,3.276,9.129c2.185,2.371,5.777,4.227,10.776,5.564c4.696,1.338,8.065,2.664,10.11,3.975
			c2.046,1.314,3.067,3.158,3.067,5.531c0,2.02-0.656,3.467-1.968,4.336c-1.314,0.871-3.623,1.307-6.932,1.307
			c-5.05,0-10.464-1.465-16.245-4.395c-1.767,1.641-2.652,3.521-2.652,5.643c0,2.4,1.293,4.004,3.884,4.811
			c2.586,0.809,6.606,1.213,12.06,1.213c7.523,0,13.249-1.32,17.173-3.959c3.928-2.637,5.891-6.684,5.891-12.137
			C219.475,320.74,217.98,317.281,215.114,315.162z"/>
		<path fill="#002F65" d="M268.643,294.617c-4.24-3.623-12.066-5.436-23.479-5.436h-15.98c-0.734,0-1.288,0.158-1.666,0.475
			s-0.568,0.828-0.568,1.535c0,1.01,0.225,2.068,0.68,3.18h4.318c0.15,3.232,0.229,8.545,0.229,15.941
			c0,13.686-0.078,22.156-0.229,25.412h-2.764c-0.734,0-1.288,0.158-1.666,0.473c-0.378,0.316-0.568,0.812-0.568,1.498
			c0,1.033,0.225,2.107,0.68,3.217l18.52-0.037c10.475,0,17.904-2.373,22.285-7.119c4.381-4.748,6.572-11.777,6.572-21.096
			C275.006,304.256,272.885,298.242,268.643,294.617z M259.064,330.006c-1.922,2.398-4.711,3.598-8.373,3.598
			c-3.078,0-4.984-0.535-5.717-1.611c-0.732-1.072-1.097-4.6-1.097-10.582c0-12.85,0.062-21.045,0.187-24.578
			c1.34-0.25,2.918-0.379,4.733-0.379c4.243,0,7.491,1.396,9.753,4.186c2.26,2.789,3.387,7.756,3.387,14.902
			C261.938,322.787,260.979,327.607,259.064,330.006z"/>
		<path fill="#002F65" d="M317.283,315.162c-2.863-2.121-6.945-3.875-12.248-5.264c-4.217-1.238-7.02-2.4-8.404-3.484
			c-1.393-1.086-2.082-2.74-2.082-4.963c0-1.867,0.551-3.293,1.664-4.279c1.107-0.982,3.092-1.477,5.943-1.477
			c4.291,0,9.355,1.312,15.188,3.939c1.539-1.666,2.309-3.547,2.309-5.643c0-2.197-1.055-3.674-3.16-4.43
			c-2.111-0.758-6.408-1.139-12.896-1.139c-6.309,0-11.262,1.414-14.863,4.242c-3.596,2.83-5.396,6.779-5.396,11.854
			c0,3.711,1.092,6.754,3.277,9.129c2.184,2.371,5.773,4.227,10.773,5.564c4.697,1.338,8.064,2.664,10.107,3.975
			c2.051,1.314,3.072,3.158,3.072,5.531c0,2.02-0.658,3.467-1.971,4.336c-1.312,0.871-3.621,1.307-6.932,1.307
			c-5.049,0-10.465-1.465-16.242-4.395c-1.77,1.641-2.652,3.521-2.652,5.643c0,2.4,1.293,4.004,3.879,4.811
			c2.588,0.809,6.611,1.213,12.064,1.213c7.521,0,13.246-1.32,17.174-3.959c3.926-2.637,5.889-6.684,5.889-12.137
			C321.648,320.74,320.148,317.281,317.283,315.162z"/>
	</g>
	<path fill="#002F65" d="M212.146,253.668c1.128,0.588,2.392,0.898,3.656,0.898c2.969,0,5.665-1.637,7.037-4.271l70.34-135.083
		c2.018-3.877,0.506-8.675-3.373-10.696c-1.127-0.587-2.393-0.897-3.656-0.897c-2.969,0-5.666,1.635-7.037,4.268l-70.34,135.084
		C206.758,246.85,208.271,251.647,212.146,253.668z"/>
</g>
</svg>
